# xmcd
#
# Track frame offsets:
#	150
#	27802
#	48492
#	69282
#	88580
#	106380
#	125742
#	146320
#	167175
#	186152
#	204370
#	226855
#
# Disc length: 3313 seconds
#
# Revision: 0
# Processed by: cddbd v1.5.2PL0 Copyright (c) Steve Scherf et al.
# Submitted via: EasyCDDAExtractor 10.0.2.1
#
DISCID=9d0cef0c
DTITLE=박정현 - Naturally
DYEAR=2000
DGENRE=Ballad
TTITLE0=아무말도, 아무것도...
TTITLE1=You mean everything to me
TTITLE2=10분전으로
TTITLE3=늘푸른
TTITLE4=순정
TTITLE5=힘내!!!
TTITLE6=까만 일기장
TTITLE7=싫어
TTITLE8=거짓말처럼
TTITLE9=It's me
TTITLE10=Better now
TTITLE11=지금은 아무것도 아냐
EXTD=YEAR: 2000\n
EXTT0=
EXTT1=
EXTT2=
EXTT3=
EXTT4=
EXTT5=
EXTT6=
EXTT7=
EXTT8=
EXTT9=
EXTT10=
EXTT11=
PLAYORDER=
